<?xml version="1.0" encoding="UTF-8"?>
<svg id="Layer_2" data-name="Layer 2" xmlns="http://www.w3.org/2000/svg" viewBox="0 0 378.11 373.45">
  <defs>
    <style>
      .cls-1 {
        fill: #fff;
      }
    </style>
  </defs>
  <g id="Layer_1-2" data-name="Layer 1">
    <g>
      <path class="cls-1" d="M371.02,221.92c2.73,1.78,6.81,4.6,6.81,7.29l-.19,100.47c-4.54,22.44-21.59,39.5-44.22,43.45l-242.01-.17-7.07-.03c-13.16-.05-25.32,1.26-38.73-.12-22.85-2.36-43.72-22.48-44.88-46.03l-.47-73.67,6.38-7.41-.28-52.03v-8.99s-.11-20.63-.11-20.63l-6.25-7.48L.85,46.53C1.03,22.19,24.23.33,48.36.35l96.44.07c-1.82,1.57-4.29,1.77-6.37,1.75l.22,1.13,147.27.08,5.6-3.37,36.03.07c24.9.05,48.29,20.71,49.72,46.47,1.49,26.83.63,52.8.26,79.42l-.46,32.81-1.6,13.98-.3-43.03-4.23,4,.16,53.26.02,7.26-.08,27.68ZM330.1,367.25c21.3-1.56,40.91-20.04,41.05-41.48l.64-96.96-6.27-4.6-.43-29.45-.04-8.34.26-54.29,6.53-7.41-.66-77.13c-1.13-22.48-20.85-40.05-42.81-41.66-12.1-.89-23.1-.07-35.05-.29l-6.16,3.4-186.75-.03c-3.47,0-6.07-1.12-8.53-3.08-14.7.12-28.58-.77-43.69.31C26.67,7.76,6.49,26.4,6.31,48.57l-.85,106.77,6.48,7.8.26,21.57.06,8.91-.26,53.88c-1.13,2.05-3.66,4.56-6.09,6.53l.25,70.99c.07,21.57,19.84,40.32,40.89,42.29,12.61,1.18,23.88.03,36.19.45l6.44-3.8,189.44.24c3.43,0,5.98,1.45,8.2,3.48,14.33-.2,27.42.7,42.77-.42Z"/>
      <path class="cls-1" d="M298.65,303.85l-218.25.1c-11.36,0-18.91-9.61-18.91-20.36l.05-193.82c0-9.8,7.61-19,17.86-19l217.77-.08c10.79,0,19.27,8.19,19.28,19.09l.16,193.79c0,10.06-6.11,20.28-17.95,20.29ZM309.84,112.87l-.09-23.25c-.38-6.11-4.22-11.05-10.68-11.87l-220.61-.16c-7.11,1.6-10.51,7.23-10.41,14.05l.29,21.21,241.5.02ZM299.65,297.04c6.59-1.6,10.26-6.36,10.25-12.62l-.1-164.53-241.55-.06v165.71c-.01,7.52,7.21,12.07,14.18,11.49h217.22Z"/>
      <path class="cls-1" d="M278.18,251.99l-177.77-.05c-1.71,0-3.91-2.49-3.87-3.77s2.15-3.24,3.98-3.24l178.52-.02c1.69,0,3.58,2.17,3.57,3.39-.01,1.81-1.91,3.68-4.43,3.68Z"/>
      <path class="cls-1" d="M200.26,273.73l-98.99.05c-1.87,0-4.02-1.35-4.37-2.55s1.12-4.56,2.42-4.56l100.96-.1c1.54,0,3.68,2.32,3.69,3.59s-2.14,3.57-3.7,3.57Z"/>
      <path class="cls-1" d="M226.08,213.05c-1.79.9-4.61.16-5.39-1.3-.62-1.17.39-4.04,1.65-4.9l31.58-21.46-31.44-21.72c-1.24-.86-1.98-4.18-1.24-5.19s3.01-1.57,4.54-1.39l35.83,25.29c.58.5,2.14,2.19,1.77,2.86l-1.98,3.51-35.34,24.32Z"/>
      <path class="cls-1" d="M158.86,207.7c.56,1.47.87,4.2.16,5.05s-3.03,1-4.43.78l-36.68-25.58c-.65-.76-1.71-2.65-1.29-3.43s1.83-2,2.78-2.65l33.9-23.21c1.59-1.09,4.74-1.4,5.61-.16,1.47,2.09.39,4.79-1.6,6.14l-30.73,20.87,32.27,22.2Z"/>
      <path class="cls-1" d="M181.15,219.93c-.74,1.93-3.08,3.28-4.33,3.12s-3.24-3.02-2.72-4.37l26.27-68.8c.68-1.78,2.89-3.23,4.22-3.02,1.75.28,3.43,2.8,2.71,4.66l-26.15,68.4Z"/>
      <path class="cls-1" d="M114.34,88.13c4.26-.8,7.89,2.57,8.33,6.01.51,3.98-1.72,7.38-6.06,8.11-3.4.57-7.18-1.49-7.87-5.47-.61-3.53.68-7.72,5.6-8.65Z"/>
      <path class="cls-1" d="M138.35,88.29c4.19-1.05,7.6,2.03,8.4,5.36.93,3.91-1.38,7.5-5.65,8.45-3.05.68-6.95-1.36-8.07-4.66-1.19-3.5.81-8.02,5.32-9.14Z"/>
      <path class="cls-1" d="M90.28,88.15c3.97-.64,7.52,2.51,8.04,5.13.95,4.84-1.67,7.98-5.59,8.63s-7.3-1.16-8.25-4.94c-.89-3.56.92-8.03,5.79-8.82Z"/>
    </g>
  </g>
</svg>