<?xml version="1.0" encoding="UTF-8"?>
<svg id="Layer_2" data-name="Layer 2" xmlns="http://www.w3.org/2000/svg" viewBox="0 0 383.19 373.24">
  <defs>
    <style>
      .cls-1 {
        fill: #fff;
      }
    </style>
  </defs>
  <g id="Layer_1-2" data-name="Layer 1">
    <g>
      <path class="cls-1" d="M375.53,217.36l7.3,6.84v103.59c-3.43,23.75-21.6,42.21-45.42,45.46H83.75s-37.21-.21-37.21-.21c-22.5-1.64-43.96-20.85-45.74-44.21l-.81-75.93,6.4-6.56-.14-53.27-.05-7.54-.11-21.93c-2.2-1.9-6.02-5.01-6.01-7.8L.23,45.71C3.73,20.26,24.83,1.29,50.44,0l97.31.3-3.46,3.13,148.71.07,4.99-3.31,35.58.14c24.61.1,47.67,20.87,48.82,46.39s.97,49.75.07,75.05l-1.57,44.11-.7-35.2c-1.45.23-4.16,2.46-4.17,3.95l-.14,51.89.03,7.6-.39,23.25ZM377.03,323.13l.43-96.38-1.95-2.12-.14,24.44-4.66-4.52-.6-50.5v-7.64s.25-53.61.25-53.61l6.68-7.6-.28-76.28c-.08-23.1-21.44-42.95-44.08-42.96l-33.77-.02c-2.48,2.13-5.07,3.23-8.63,3.23l-190.73-.07c-1.55,0-4.34-2.07-5.57-3.13l-44.77.28C27.72,7.34,6.39,25.74,6.22,47.95l-.86,107.57,6.48,7.62.25,22.22.04,7.58-.2,54.08c-.62,2.25-4.18,5.41-6.33,7.07l.58,72.58c1.24,21.1,20.46,39.08,41.02,40.82,12.63,1.07,23.91.03,36.12.34l5.64-3.78,193.14.23c4.36,0,7.35,1.03,10.44,3.37l41.94-.18c23.17-1.38,41.46-21.12,42.56-44.32Z"/>
      <path class="cls-1" d="M232.55,250.92c-3.32,7.31-5.73,14.81-4.31,22.53,2.49-.15,6.11.86,7.23,2.49l.07,27.96c0,1.55-2.36,4.17-4.08,4.17l-80.05.07c-2.22,0-4.52-2.13-4.51-4.21l.11-27.81c0-1.88,5.37-2.79,7.59-2.57-.06-3.75.62-10.29-1-13.91l-21.73-48.59,47.11-89.66c.86-1.65,3.36-2.7,4.57-2.17s2.67,4,1.89,5.46l-43.99,82.98c-1.77,3.35-1.64,3.95-.14,7.33l18.79,42.18c2.09,4.69,1.55,10.31,1.9,16.39l59.05-.06c-.54-9.44.99-16.81,4.53-24.62l17.12-37.81-45.15-86.38c-.64-1.22-.04-4.41.9-5.11,1.1-.82,4.49-.32,5.2,1.05l46.9,90.61-17.99,39.69ZM228.35,301.03l.11-20.37-74.32.07-.09,20.4,74.31-.1Z"/>
      <path class="cls-1" d="M306.78,173.15l-17.6-.05c-1.56,0-4.46-2.69-4.45-4.3v-16.88c.02-3.3,2.15-5.35,6.5-5.27-17.35-32.67-43.38-51.5-80.09-59.38-1.28-2.15-1.34-5.7.42-7.93l75.12-.32c2.44-7.53,8.86-10.85,15-9.88,6.59,1.04,11.36,6.39,11.24,13.06s-4.27,11.94-11.46,13c-5.77.86-11.8-2.46-14.41-8.9l-52.91.41,18.11,8.38c20.59,12.27,36.75,30.18,47.04,51.83l7.52-.4c1.56-.08,4.5,2.56,4.5,4.16l-.03,18.2c0,1.8-2.73,4.28-4.47,4.28ZM297.48,76.2c-4.09,1.57-4.84,5.8-3.39,8.62s5.02,3.83,7.7,2.93c3.34-1.12,4.78-4.9,3.55-8.21-.98-2.64-4.41-4.66-7.86-3.34ZM304.4,165.98l-.04-12.38-12.63.17v12.4s12.67-.2,12.67-.2Z"/>
      <path class="cls-1" d="M94.04,173.53l-17.63.05c-2.59,0-5.04-3.14-5.02-5.6l.16-16.31c.01-1.06.65-3.35,1.46-3.95s2.95-.82,4.29-.92l7.58-.55c13.22-27.69,36.21-48.94,64.59-59.53l-52.5-.49c-2.41,6.46-8.15,9.99-13.98,9.29-7.04-.84-11.51-6.32-11.77-12.42-.28-6.79,4.33-12.1,9.93-13.34,7.09-1.58,13.39,1.68,15.67,9.47l70.86.05c1.73,0,4.13,1.08,4.71,2.2.68,1.31,0,5.3-1.37,5.96-33.69,6.99-62.83,28.32-78.59,59.22,3.38-.03,6.07,1.86,6.08,4.92l.04,16.46c0,1.92-2.15,5.47-4.51,5.48ZM83.94,76.27c-4.09.38-6.4,4.22-5.59,7.79.52,2.26,4,4.66,6.98,4.18,2.82-.45,5.43-3.44,4.93-6.62-.42-2.67-3.37-5.62-6.33-5.35ZM91.73,166.36l-.21-12.68-12.93-.05-.22,13.05,13.36-.33Z"/>
      <path class="cls-1" d="M194.73,194.45c5.21,2.15,9.68,5.59,11.32,9.53,2.52,6.09,2.19,12.07-1.47,16.89-4.56,5.99-12.34,8.08-19.25,5.64-6.51-2.3-10.88-8.92-10.84-16.11s5.25-13.3,13.14-15.93l.09-69.52c0-1.7,2.01-3.66,3.25-3.73s3.71,1.99,3.71,3.52l.06,69.7ZM187.49,202.4c-5.46,2.23-7.14,8.6-4.89,12.71,2.46,4.49,7.53,6.14,11.48,4.78,5.56-1.91,7.53-7.63,5.75-12.19s-7.07-7.45-12.33-5.3Z"/>
      <path class="cls-1" d="M200.25,96.81l-18.96-.09c-1.5,0-3.85-2.32-3.85-3.74l.02-19.45c0-1.5,2.52-4.43,4.04-4.43l18.99-.08c2.04,0,4.6,2.74,4.6,4.7l.02,18.06c0,2.16-2.39,5.04-4.86,5.03ZM198.22,89.84l-.1-14-13.7.17-.06,13.72,13.85.11Z"/>
    </g>
  </g>
</svg>