<?xml version="1.0" encoding="UTF-8"?>
<svg id="Layer_2" data-name="Layer 2" xmlns="http://www.w3.org/2000/svg" viewBox="0 0 378.25 365.04">
  <defs>
    <style>
      .cls-1 {
        fill: #fff;
      }
    </style>
  </defs>
  <g id="Layer_1-2" data-name="Layer 1">
    <g>
      <path class="cls-1" d="M371.27,210.26c2.26,2.05,6.17,5.29,6.76,7.82l-.11,99.83c-2.11,24.22-21.09,44.09-45.45,47.13l-241.84-.14h-7.09s-37.41-.2-37.41-.2c-23.05-1.83-44.11-22.09-45.3-45.75l-.42-72.62,6.4-6.58-.25-50.96.06-7.17.15-16.61-6.77-7.34L.93,45.71C1.13,21.02,25.18.21,49.26.3l96.56.36c-4.28,2.07-8.51.22-12.8,2.22l56.53.65,97.5-.02,5.33-3.43,37.34-.09c24.19,2,46.45,21.4,47.73,46.76s.67,51.53.32,77.44l-.29,21.59c-.07,5.14.08,9.62-1.83,14.22l-.28-31.38-4.28,3.34.16,51.51v6.95s0,19.84,0,19.84ZM372.07,244.84l.55-26.75c-.74-.52-1.75-1.28-1.79-1.27s-.44,1.83-.43,2.36l.32,21.59c-1.27-.55-4.19-3.23-5.21-5.02l-.23-44.85-.02-8.15.28-51.79,6.21-7.36-.18-73.8c-.06-25.72-23.17-44.47-47.93-44.27l-30.99.25-4.81,3.68-119.29.06-71.99-.13c-1.58,0-4.13-1.94-5.5-3.34l-41.88.13C28.03,7.18,6.42,25.1,6.29,47.15l-.68,109.81,6.52,6.99.2,18.15.04,6.74-.2,50.9c-.01,2.83-3.68,5.95-6.21,7.72l.44,70.68c1.18,21.24,20.3,39.38,40.92,41.16l35.89.42,5.71-3.82,193.29.14c1.5,0,4.44,2.59,5.65,3.72l43.53-.6c20.73-1.87,39.8-20.14,40-41.22l.69-73.1Z"/>
      <path class="cls-1" d="M84.35,141.2c-19.4,41.91-12.64,90.23,17.68,124.35l3.97-3.07c.78-.6,2.93,1.28,3.22,2.22s0,3.28-.68,4l-6.14,6.45c-8.13-7.05-13.76-14.24-19.09-23.2-22.04-37.03-22.29-82.33-1.91-120.3,27.21-50.68,85.11-76.15,141-61.97,53.48,13.57,92.48,61.58,93.76,118.35.67,30.03-10.22,58.77-29.32,82.06-1.12,1.37-3.98,1.71-4.99.87-1.19-1-1.5-3.76-.33-5.22,16.49-20.49,26.85-45.31,27.59-71.59,1.97-69.38-55.85-125.28-124.67-121.06-43.32,2.66-81.58,28.14-100.08,68.11Z"/>
      <path class="cls-1" d="M210.35,191.46c.73,8.68-2.9,15.52-9.4,19.35-6.49,3.82-14.68,3.26-21.02-1.53-7.29-5.51-9.71-15.23-5.93-23.34s11.88-12.47,21.2-10.78l53.14-43.63c1.61.37,4.01,1.76,3.89,2.84s-1.32,2.77-2.26,4.03l-39.63,53.06ZM206.99,183.87l16.67-22.48-21.77,17.14,5.1,5.34ZM188.42,182.27c-7.4,1.8-10.75,9.18-8.63,15.68,1.91,5.85,8.15,9.61,14.96,7.89,5.89-1.49,10.29-8.08,8.22-14.91-1.67-5.51-7.41-10.39-14.55-8.66Z"/>
      <path class="cls-1" d="M218.04,257.92l-52.72.1c-1.31,0-3.58-1.75-3.75-2.93-.22-1.53,1.5-3.5,3.4-3.87l53.24-.04c1.21.65,2.75,2.12,3.11,3.15s-1.95,3.59-3.29,3.59Z"/>
      <path class="cls-1" d="M105.03,241.82c.84,1.4.52,4.68-.48,5.29s-3.75.19-4.41-.85c-7.73-12.22-12.78-24.71-15.4-38.91-.29-1.57.27-4.07,1.38-4.57,1.41-.64,4.48.82,4.79,2.52,2.4,13.31,6.94,24.64,14.12,36.53Z"/>
      <path class="cls-1" d="M282.69,245.51c-.81,1.18-2.81,2.42-3.61,1.92-1.02-.64-1.9-3.1-1.89-4.56,7.67-11.79,11.79-24.08,14.55-37.81.13-2.16,1.93-3.78,4.06-3.29,1.34.3,2.49,2.57,2.17,4.36-2.59,14.26-6.86,27.13-15.29,39.38Z"/>
      <path class="cls-1" d="M208.66,274.78l-36.38.15c-1.4,0-3.67-1.49-3.93-2.64-.32-1.42,1.74-4.14,3.33-4.14l36.78-.06c1.28,0,3.7,2,3.72,3.25s-2.27,3.44-3.53,3.45Z"/>
      <path class="cls-1" d="M89.95,185.64c-.16,1.71-1.16,3.59-2.03,4.05s-3.88-.63-4.02-1.71c-.65-12.86,6.48-43.65,12.93-43.39,1.13.05,2.65,2.47,2.21,3.55-5.01,12.14-7.81,24-9.08,37.5Z"/>
      <path class="cls-1" d="M237.36,99.63c-11.54-5.17-24.74-9.04-37.84-9.74-1.76-.09-3.34-2.29-3.21-3.63.68-6.93,43.91,4.11,43.91,9.88,0,1.05-1.76,3.21-2.86,3.49Z"/>
      <path class="cls-1" d="M182.99,89.89c-13.48,1.46-24.94,4.4-36.69,9.93-1.23.2-4.13-.4-4.14-1.49s.82-3.19,1.53-4.31c12.69-5.63,24.92-8.84,38.82-10.3,1.41.29,3.64,1.43,3.74,2.52s-1.81,3-3.26,3.66Z"/>
      <path class="cls-1" d="M299.08,184.28c-.27,1.76-.89,4.33-1.75,4.76-1.03.52-3.28.17-4.65-.52-.33-12.86-3.03-25.1-8-37.1-.41-.98-.11-3.81.84-4.24s2.98-.24,4.35.12c5.17,12.02,8.17,23.38,9.2,36.97Z"/>
      <path class="cls-1" d="M106.6,135.12c-1.07.21-3.34-.08-4.16-.73-4.62-3.64,16.3-24.31,26.66-32.17,1.03-.78,3.77-.27,4.54.94.7,1.11.11,3.16-1.21,4.45-10.28,8.02-18.44,16.63-25.83,27.5Z"/>
      <path class="cls-1" d="M254.57,103.52c9.55,7.46,30.87,27.46,25.77,31.84-.89.77-3.98.37-4.71-.71-7.05-10.39-16.37-19.2-25.88-27.06-1.1-.91-.61-3.41.21-4.13s3.71-.65,4.61.06Z"/>
      <path class="cls-1" d="M194.49,104.69c.01,1.76-1.88,4.19-3.5,4.13-1.47-.05-3.2-2.33-3.19-3.81l.05-17.28c0-1.37,1.82-3.84,3.14-3.89,1.57-.06,3.37,2.15,3.38,3.69l.12,17.15Z"/>
      <path class="cls-1" d="M237.82,119.38c-.71,1.22-3.05,2.31-4.18,1.79-1.23-.56-2.44-3.57-1.8-4.66l9.86-16.71c.58-.98,3.04-1.91,4.06-1.46,1.46.65,2.25,3.5,1.49,4.8l-9.43,16.24Z"/>
      <path class="cls-1" d="M295.45,198.39l-19.05-.28c-1.14-.02-3.19-1.83-3.38-2.88-.23-1.26,1.9-3.9,3.22-3.87l20.3.38c1.14.02,2.92,2.38,2.73,3.46-.25,1.44-2.29,3.22-3.82,3.2Z"/>
      <path class="cls-1" d="M150.99,116.12c.5.83-.21,3.36-.84,4.06s-3.64.74-4.2-.18l-10.06-16.69c-.6-.99.01-4,.82-4.72.94-.85,3.78-.05,4.57,1.27l9.71,16.27Z"/>
      <path class="cls-1" d="M118.61,146.33c1.27.75,2.23,3.66,1.72,4.74-.66,1.41-3.53,2.03-5.16,1.03l-14.9-9.13c-.91-.56-1.15-3.47-.43-4.28s3.45-1.36,4.58-.69l14.2,8.34Z"/>
      <path class="cls-1" d="M267.47,152.53c-1.23.73-4.26-.52-4.6-1.58s.56-3.43,1.66-4.1l14.91-9.06c.9-.54,3.79.32,4.45,1.09s.62,3.57-.34,4.14l-16.08,9.5Z"/>
      <path class="cls-1" d="M105.63,198.12h-18.24c-1.09.01-3.21-1.86-3.4-2.9-.22-1.25,1.94-3.56,3.25-3.58l18.51-.32c1.4-.02,3.75,1.67,3.81,2.94.08,1.9-1.75,3.87-3.93,3.87Z"/>
      <path class="cls-1" d="M111.83,252.79c-1.03.79-4.28-.54-4.32-1.55s.43-3.7,1.34-4.42l12.67-10.13c1.01-.81,3.7-.56,4.52.31s.67,4.32-.31,5.07l-13.9,10.72Z"/>
      <path class="cls-1" d="M275.91,248.03c.8.68.92,3.94.24,4.63-.82.83-3.31.94-4.44,0l-13.63-11.28c-.9-.75-.95-3.86-.29-4.68.79-.98,3.63-1.03,4.7-.12l13.42,11.46Z"/>
    </g>
  </g>
</svg>