<?xml version="1.0" encoding="UTF-8"?>
<svg id="Layer_2" data-name="Layer 2" xmlns="http://www.w3.org/2000/svg" viewBox="0 0 383.35 373.44">
  <defs>
    <style>
      .cls-1 {
        fill: #fff;
      }
    </style>
  </defs>
  <g id="Layer_1-2" data-name="Layer 1">
    <g>
      <path class="cls-1" d="M376.59,193.74l-.27,27.78c2.59,1.55,6.72,4.53,7.03,7.36l-.13,99c-3.54,24.01-22.28,42.81-46.42,45.56l-193.06-.05-59.73-.06-37.48-.18c-22.65-1.65-43.84-20.89-45.67-44.35l-.86-75.65,6.41-6.66-.11-53.58-.11-8.05.34-20.16L0,157.49.74,46.95C.93,19.02,27.58-.08,54.03,0l74.19.22c6.48.02,12.31.01,18.44,1.2l-10.38.92.42.95,12.67.32,141.38-.06,4.94-3.27,37.77.05c24.75.03,48,20.88,49.38,46.49l.38,78.85-.65,22.2-.79,20.12-.88-18.11c-.35-7.26-1.1-14.17-.1-20.81l-4.41,4.28.11,52.33.1,8.06ZM376.75,325.56l.54-97.78-.93.58-.8,20.7c-1.93-.55-4.44-3.42-4.46-6.06l-.49-48.84-.11-7.59.22-53.84,6.47-7.34-.33-76.59c-.1-23.79-22.26-42.81-45.42-42.85l-34.07-.06-5.38,3.31-192.62.08c-2.55,0-4.91-1.53-6.49-3.15l-44.61.36C26.95,7.91,6.22,26.39,6.1,48.42l-.54,107.5,6.37,7.14.28,21.82-.05,7.99-.31,53.83c-.11,2.43-4.2,5.95-6.19,7.73l.34,70.18c.1,21.87,19.46,41.01,41.05,43.01l36.14.36,6.45-3.85,193.45.27c3.8,0,6.65,1.36,9.35,3.48l43.89-.45c20.63-1.77,40.31-20.09,40.43-41.84Z"/>
      <path class="cls-1" d="M223.32,243.73l-28.82-2.95-.49,12.11c-.75,1.5-4.07,2.57-6.31,2.71l-.24-14.42c-14.1.17-27.88,1.68-42.4,4.89l8.1,18.14c-.01,1.85-6.3,2.82-7.12,1.03l-8.17-17.73c-9.14,2.44-17.85,5.12-27.08,9.4l11.86,11.22c-1.63.7-7.91,2.09-9.51.55-35.25-33.98-45.59-88.92-23.67-133.56,29.74-60.57,104.33-84.01,162.27-46.83,36.51,23.43,55.92,64.34,51.53,107.66-.52,5.16-2.29,9.01-7.83,9.9l1.47-16.47-42.71-.1c-.37,16.03-2.07,29.82-5.8,44.73-2.09,1.6-4.53,2.66-7.44,3.17,3.32-16.42,6.01-30.93,6.47-47.83l-52.97.02v44.58c13.39.37,26.6,1.37,40.2,4.86-1.89,5.16-6.68,5.39-11.34,4.92ZM144.56,124.98c15.11,2.77,28.69,4.39,43.37,4.71l-.17-52.61c-10.18,1.52-17.14,6.88-23.91,13.56-8.37,10.16-14.73,21.44-19.28,34.34ZM238.15,125.04c-5.34-15.17-12.24-27.74-22.86-38.08-5.98-5.29-12.52-9.44-20.73-9.76l.1,52.54c15.56-.47,29.32-1.81,43.5-4.69ZM138.25,123.16c5.12-16.83,13.13-29.35,24.45-41.62-20.56,5.87-37.6,17.53-51.39,33.07,9.36,4.16,17.68,6.81,26.93,8.55ZM245.22,123.81l26.38-9.44c-14.43-15.79-31.17-27.4-51.71-32.85,6.46,6.77,12.42,12.67,15.95,20.77l9.38,21.52ZM254.67,182.44l42.36-.1c-.75-23.23-7.64-44.44-20.97-62.47l-29,10.48c5.15,17.62,6.78,34.48,7.61,52.08ZM127.75,182.38c.13-18.19,3.01-35.53,7.62-52.78l-28.46-9.3c-13.87,17.62-21.14,38.91-21.98,61.99l42.82.09ZM187.71,182.31l.06-45.59c-14.78-.49-29.5-2-45.18-5.44-5.25,16.35-7.59,33.16-7.85,51.07l52.97-.03ZM247.45,182.33c-.64-17.9-2.01-34.72-7.51-50.84-15.8,3.41-30.41,4.76-45.43,5.06l.08,45.91,52.86-.13ZM135.84,240.65c-5.27-17.51-7.72-34.02-8.04-51.37l-42.74.28c.94,22.71,8.46,43.97,21.84,61.36l28.93-10.26ZM187.61,233.84l.02-44.38-52.8.02c.59,17.46,2.8,33.8,8.06,49.87,15.04-3.62,29.25-4.93,44.72-5.51Z"/>
      <path class="cls-1" d="M73.11,201.25c8.61,5.63-9.44,11.24-17.24,34.22-3.21,9.45-.01,18.84,7.64,25.3,18.37,15.5,53.99,15.31,78.64,11.85,42.75-6,91.63-22.46,129.45-43.36,22.42-12.39,48.43-30.96,58.81-54.09,4.86-10.84,2.22-22.15-7.26-29.4-11.24-8.61-21.22-7.96-25.67-12.85-.75-.83.67-4.37,2.02-4.18,18.59,2.6,39.96,16.02,40.32,34.28.38,18.84-15.82,36.97-30.41,49.1-37.67,31.31-100.14,54.41-148.39,64.42-30.43,6.31-75.34,9.45-99.77-8.48-11.94-8.76-16.65-22.67-11.33-36.69,4.48-11.8,12.3-22.89,23.19-30.12Z"/>
      <path class="cls-1" d="M195.01,273.87v20.7c15.22-1.63,28.14-16.48,35.05-29.82,2.1-4.06,5.28-7.03,10.13-5.81-3.39,12.39-11.48,21.57-20.43,31.37,20.81-5.55,38.21-17.42,52.05-33.42l-12.65-5.42c-.2-3.36,4.58-5.65,7.63-4.39l9.67,3.98,11.02-18.14c2.18-2.01,5.48-3.84,9.66-5.23-23.26,61.95-95.29,91.96-155.45,61.87-1-.5-2.82-2.56-3.43-3.31l10.52-1.27,16.87,6.44-6.93-8.03c1.73-1.43,6.99-2.61,8.56-.99,5.94,6.16,11.33,10.84,20.62,12.06l.22-18.66,6.9-1.94Z"/>
    </g>
  </g>
</svg>