<?xml version="1.0" encoding="UTF-8"?>
<svg id="Layer_2" data-name="Layer 2" xmlns="http://www.w3.org/2000/svg" viewBox="0 0 403.51 373.2">
  <defs>
    <style>
      .cls-1 {
        fill: #fff;
      }
    </style>
  </defs>
  <g id="Layer_1-2" data-name="Layer 1">
    <g>
      <path class="cls-1" d="M396.31,215.43l7.18,7.6v103.74c-2.73,24.11-21.27,43.15-45.28,46.44l-309.96-.11c-24.01,0-45.79-21.64-47.46-45.22L.11,253.12l6.43-6.54-.23-53.83-.08-7.93.24-20.86-6.47-6.71L.75,46.67C.92,22.17,24.17.53,48.34.49l99.06-.16-2.36,2.28c-1.94-1.02-1.74-.3-.59.78h164.31s4.7-3.39,4.7-3.39l40.09.1c24.35.06,48.17,20.12,49.38,45.55l-.08,80.68-1.11,38.5-.9-34.96-4.44,4.15.13,52.43.14,7.44-.35,21.55ZM397.26,325.48l.55-102.55-2.28.36.24,26.45c-2.11-1.28-4.65-3.9-4.67-5.88l-.37-49.74v-8.6s.27-52.76.27-52.76l6.74-7.12-.31-77.54c-.09-22.45-21.05-41.92-42.98-42.09l-39.11-.31-5.37,3.35-211.4.02-4.58-3.18-43.99.27C27.64,6.28,6.13,26.09,6.01,49.04l-.56,106.33,6.47,7.54.29,21.87-.05,8.92-.21,54.68-6.38,6.57.5,70.31c1.05,21.14,19.17,39.89,40.07,42.04l38.7.35c1.67-1.7,4.19-3.63,6.7-3.63l205.51.21c4.02,0,7.42,1.68,10.29,3.44l49.81-.59c20.42-1.84,40-20.13,40.11-41.6Z"/>
      <path class="cls-1" d="M341.85,317.38c-3.2,3.62-11.53,6.77-15.86,2.43l-57.33-57.44c-.56-.56-1.77-2.46-1.44-3.1l1.88-3.56-14.02-14.45c-24.6,18.63-55.87,25.5-85.54,16.06-37.47-11.92-64.03-46.09-66.26-85.54-1.96-34.78,15.12-67.16,43.54-86.37,29.67-19.37,67.37-20.03,97.17-1.84,49.32,30.11,61.17,94.91,27.09,140.85l14.49,14.09,4.94-1.09,56.82,57.07c4.35,4.37,5.21,10.83,1.12,15.45l-6.59,7.44ZM234.79,245.57c32.34-15.98,50.83-50.26,48.46-85.87-2.08-31.21-20.66-58.61-47.93-72.93-22.46-11.8-47.65-12.78-71.08-2.78-31.63,13.51-53.32,44.83-54.15,79.73-.82,34.55,18.49,66.5,49.19,81.88,23.56,11.81,51.27,11.94,75.52-.04ZM274.05,250.53l6.35-6.49-13.26-13.78-6.67,6.94,13.58,13.32ZM337.13,312.34l5.94-7.17c1.12-1.35.82-4.02-.77-5.57l-53.19-53.54-13.2,13.3,53.37,54.2c2.63,2.05,5.8,1.25,7.85-1.22Z"/>
      <path class="cls-1" d="M95.33,217.74l-49.22.18c-1.6,0-3.97-2.21-3.94-3.65s2.32-3.35,3.97-3.35l49.05-.02c1.37,0,3.71,2.08,3.74,3.35s-2.23,3.48-3.6,3.49Z"/>
      <path class="cls-1" d="M109.68,241.31l-37.12.11c-1.61,0-3.89-1.94-3.91-3.21-.02-1.47,1.86-3.49,3.36-3.64l37.34-.15c1.23.53,3.08,1.79,3.53,2.78.51,1.15-1.67,4.12-3.21,4.12Z"/>
      <path class="cls-1" d="M89.62,193.7l-27.29.22c-1.34.01-3.51-1.94-3.82-2.99-.37-1.22,1.81-3.72,3.12-3.73l26.58-.26c1.13-.01,3.27,1.47,3.87,2.4s-1.32,4.34-2.46,4.35Z"/>
      <path class="cls-1" d="M258.55,212.71c-18.89,26.16-51.07,37.16-82.01,28.78-28.93-7.83-51.46-32.73-55.51-63.77-3.57-27.34,6.42-53.89,27.36-71.69,36.03-30.62,90.82-20.88,114.7,20.08,15.69,26.91,14.27,60.54-4.55,86.6ZM240.02,222.07c30.95-25,35.65-69.83,11.5-100.47-27.1-34.39-78.5-35.6-106.88-2.38-24.28,28.42-23.25,70.3,2.91,97.2,24.69,25.39,64.48,28.27,92.47,5.66Z"/>
      <path class="cls-1" d="M233.26,141.88l-8.85-.79.07,59.74c0,1.62-1.47,4.05-2.7,4.32-1.72.38-4.32-1.43-4.31-3.5l.27-66.94,17.55-.84c2.67-.13,4.89,2.09,4.89,4.84l-.03,62.05c0,1.13-1.07,3.21-1.89,3.8-.98.71-4.02-.05-5-1.23v-61.46Z"/>
      <path class="cls-1" d="M203.49,163.88l-8.49-.03.12,37.89c-.36,1.39-2.17,3.6-3.42,3.67s-3.35-2.13-3.54-3.52v-41.32c-.02-.98,2.13-3.74,3.39-3.72l18.62.3.18,44.69c-.47,1.15-1.95,3.19-2.96,3.52-1.19.39-3.47-1.37-4.04-2.55l.14-38.94Z"/>
      <path class="cls-1" d="M159.16,127.67c-17.49,18.78-13.38,38.35-21.84,27,3.3-14.93,10.8-27.65,22.79-37.05,9.52-7.36,27.38-13.11,27.32-6.25-.04,5.47-14.91,1.93-28.28,16.3Z"/>
      <path class="cls-1" d="M173.63,183.76l-9.17-.03-.09,18.01c0,1.48-2.36,3.71-3.63,3.7s-3.32-2.25-3.31-3.85l.13-22.29c0-.98,2.76-2.72,3.7-2.7l18.87.33.52,24.89c.02,1.17-2.03,3.5-3.14,3.77-1.3.32-3.8-2-3.81-3.44l-.07-18.39Z"/>
    </g>
  </g>
</svg>