<?xml version="1.0" encoding="UTF-8"?>
<svg id="Layer_2" data-name="Layer 2" xmlns="http://www.w3.org/2000/svg" viewBox="0 0 382.94 364.96">
  <defs>
    <style>
      .cls-1 {
        fill: #fff;
      }
    </style>
  </defs>
  <g id="Layer_1-2" data-name="Layer 1">
    <g>
      <path class="cls-1" d="M375.9,210.73c2.32,2.04,6.99,4.99,6.99,7.94l.04,100.14c-2.89,23.83-21.41,43.24-45.4,46.16l-247.88-.1h-7.08s-36.35-.21-36.35-.21c-23.36-1.74-44.38-21.89-45.57-45.79l-.46-72.08,6.43-7.16-.27-49.81-.03-8.18.09-19.39-6.42-6.66L.72,46.57C.88,22.29,23.52,1.65,47.54.46L129.39,0l18.59,1.05-6.71,1.16.77,1.17,150.08.06,5.64-3.43,37.78.3c23.72,1.43,45.84,21.74,46.85,46.28l-.07,77.02-1.32,36.21-.86-31.29c-2.45.84-3.99,3.24-4,6.1l-.15,47.88-.05,8.46-.04,19.75ZM377.5,219.48l-2.11-1.54.04,22.84c-1.83-1.51-3.83-3.51-4.88-5.08l-.32-44.92-.06-8.26.4-50.83c.02-2.47,4.41-5.95,6.35-8.03l-.16-74.43c-.05-22.95-20.47-42.03-43.07-43.35l-34.2-.24-6.04,3.5-142.83.3-49.18-.06c-3.11,0-6.09-1.24-8.49-3.32l-43.69.05C27.72,7.06,6.33,25.46,6.19,47.75l-.67,106.54,6.39,7.06.19,20.92.03,7.6v45.86c0,5-1.36,9.03-6.35,11.67l.27,69.36c.09,21.86,19.83,40.78,41.35,42.52l35.67.26c1.63-1.26,4.65-3.7,6.66-3.7l198.31.1,4.97,3.69,42-.51c27.1-2.19,42.48-25.7,42.48-51.35v-88.3Z"/>
      <path class="cls-1" d="M207.75,205.33c2.93,0,4.95,1.3,5.24,2.77.37,1.83-1.36,4.44-3.74,4.44l-149.85.2-.31,15.19c-.06,3.03,2.43,7.3,6.25,7.3l143.72-.08c1.6,0,3.57,1.91,3.7,3.08.16,1.37-1.8,4.15-3.72,4.15l-145.12-.15c-7.03,0-11.89-8.21-11.89-14.55l.09-144.87c0-8.19,6.83-13.17,14.46-13.17l198.75-.03c8.53,0,14.55,5.6,14.24,14.12l-.08,50.97c-.81.99-1.81,2.06-2.58,2.37-.96.39-3.37-.82-4.29-1.85l.06-52.39c0-4.76-3.12-6.03-7.36-6.03l-200.54.08c-3.64.68-5.71,3.17-5.71,6.92l.02,121.76,148.63-.23Z"/>
      <path class="cls-1" d="M274.11,254.73c1.86,0,3.51,3.03,3.04,4.24-.58,1.5-2.75,2.83-4.51,2.84l-46.61.14v12.29c-.01,1.99,3.12,4.93,5.31,4.93h42.89c1.68,0,3.92,1.67,4.12,3.08.18,1.3-1.87,4.09-3.28,4.09l-43.5.04c-7.05,0-12.72-5.63-12.72-12.82l.11-119.32c0-6.09,5.87-11.55,11.47-11.56l76.08-.04c6.23,0,10.82,6.4,10.82,11.95l.02,28.23c0,1.6-1.13,3.88-2.31,4.29s-4.47-1.05-4.48-2.58l-.32-29.65c-.03-2.94-2.88-5.22-5.7-5.21l-72.94.22c-3.62.01-5.45,2.27-5.45,5.87l-.08,98.91,48.05.08Z"/>
      <path class="cls-1" d="M83.63,112.02l53.9-.21c1.46.62,3.11,3.08,3.12,4.7l.03,22.2c0,4.01-2.29,6.27-6.11,6.27h-52.14c-2.76,0-5.68-2.55-5.68-5.35l-.02-37.92c0-3.28,2.14-6.22,5.9-6.22l166.78.04c3.88,0,6.41,2.38,6.43,6.14l.12,31.21c0,1.69-1.5,3.98-2.84,4.11-2.15.2-4.1-1.58-4.11-3.78l-.05-30.58H84.09s-.46,9.39-.46,9.39ZM133.71,137.87l-.03-19.41-50-.07.08,19.57,49.95-.09Z"/>
      <path class="cls-1" d="M330.04,288.61l-36.52.26c-6.63.05-10.69-5.04-10.67-11.3l.15-76.15c.01-5.71,4.84-9.28,9.65-9.3l35.88-.14c6.82-.03,11.64,3.79,11.64,11.03v74.57c0,5.52-3.84,10.97-10.12,11.02ZM333.09,264.2l.05-61.97c-.41-1.4-2.36-3.38-3.59-3.35l-39.46.71-.05,64.5,43.05.11ZM332.61,270.79l-15.91.21c1.82,3.09.95,6.39-1.65,7.74-1.56.81-4.55.49-6.22-.95-1.5-1.3-1.23-4.7-.32-6.72h-18.12c-.51,3.62-.36,7.03,1.1,10.8l39.59-.38c2-3.25,2.2-7.18,1.54-10.7Z"/>
      <path class="cls-1" d="M134.96,190.58l-52.46.11c-3.29,0-5.84-2.73-5.84-5.98l.02-24.99c0-3.56,2.72-4.66,5.78-4.65l53.95.02c2.09,0,4.29,2.29,4.27,4.57l-.21,27.1c-.01,1.49-3.54,3.81-5.51,3.82ZM133.64,183.52l-.06-21.17-49.91.13.03,21.33,49.94-.28Z"/>
      <path class="cls-1" d="M201.8,275.12l9.3.12c1.31.02,3.52,1.9,3.65,3.14.17,1.68-1.97,3.85-4.21,3.85l-87.03.05c-1.46,0-3.84-1.86-3.99-2.99-.18-1.32,1.85-4.15,3.35-4.14l16.41.15,4.4-25.52c.28-1.6,1.97-3.54,3.35-3.85,1.26-.29,4.32,1.6,4.06,3.03l-4.68,26.14,48.5.08-4.85-24.18c-.35-1.72.71-4.17,2.05-4.49,1.65-.4,4.57,1.11,4.85,2.62l4.85,26Z"/>
      <path class="cls-1" d="M243.94,173.42l-.21,28,27.82-.23c1.8-.01,3.87,1.45,4.15,3.06.23,1.35-2.09,4.15-3.6,4.15l-30.6.07c-2.49,0-4.78-4.44-4.76-6.67l.26-30.61c.02-2.43,3.05-4.75,5.39-4.75l51.17-.03c3.46,0,6.53,1.62,6.53,5.85v11.9c-.01.76-1.69,2.14-2.38,2.45-.87.38-4-.41-4.03-1.32l-.36-11.73-49.38-.13Z"/>
      <path class="cls-1" d="M235.52,121.68l-80.04.03c-1.75,0-3.91-2.1-3.92-3.48s2.29-3.79,3.91-3.79l80.1.11c1.69,0,3.6,2.23,3.72,3.81.1,1.3-2.04,3.32-3.78,3.32Z"/>
      <path class="cls-1" d="M207.48,149.4l-52.81.03c-1.22-.43-2.86-2.95-2.57-4.13s2.1-2.72,3.49-3.32l52.01-.02c2.43-.26,4.32,1.23,4.68,3.51s-2.04,4.06-4.8,3.94Z"/>
      <path class="cls-1" d="M209.2,138.47l-54.22-.12c-1.39-.77-2.95-2.88-2.83-4.14s2.68-2.67,4.23-2.44l53.1-.02,2.65,2.89c.7.76-1.45,2.61-2.94,3.84Z"/>
      <path class="cls-1" d="M207.47,168.44l-51.93.13c-1.31,0-3.86-2.17-3.75-3.43s2.25-3.42,3.56-3.73h51.28c1.81-.04,3.84,1.18,4.22,2.75.34,1.42-1.64,4.28-3.39,4.29Z"/>
      <path class="cls-1" d="M193.99,188.45l-37.67.31c-2.12.02-4.5-1.56-4.5-3.56,0-2.22,2.32-3.74,4.53-3.74h36.34c1.48-.01,3.85,1.42,4.25,2.6s-1.68,4.38-2.94,4.39Z"/>
      <path class="cls-1" d="M272.2,224.55l-29.9.37c-1.95.02-4.13-1.09-4.56-2.85s1.57-4.57,3.67-4.58l30.09-.11c1.35,0,3.63,1.88,3.99,2.97.42,1.27-1.67,4.19-3.29,4.21Z"/>
      <path class="cls-1" d="M272.27,242.94l-31.04.12c-1.56,0-3.7-2.25-3.66-3.83.04-1.45,2.14-3.44,3.81-3.45l30.23-.14c1.21,0,3.37,1.69,3.79,2.74.49,1.22-1.64,4.55-3.13,4.55Z"/>
      <path class="cls-1" d="M272.92,155.71c.93.75.92,4.5-.08,4.81l-4.41,1.38c-2.56.8-6.53-2.2-5.52-4.75,1.38-3.48,7.53-3.45,10.01-1.44Z"/>
      <path class="cls-1" d="M167.82,219.96c1.8-.81,5.19.03,6.18,1.66,1.09,1.78.07,4.8-2.03,6.16-1.51.98-4.96.33-5.96-1.12-1.44-2.1-.6-5.61,1.8-6.7Z"/>
      <path class="cls-1" d="M260.76,266.95c1.81-1.27,5.41-.54,6.67,1.18.97,1.32-.06,4.72-1.56,5.89-1.31,1.02-4.63.66-6.07-.6s-1.04-5.07.96-6.47Z"/>
      <polygon class="cls-1" points="133.71 137.87 83.76 137.97 83.68 118.4 133.68 118.46 133.71 137.87"/>
      <polygon class="cls-1" points="133.64 183.52 83.7 183.8 83.67 162.47 133.58 162.34 133.64 183.52"/>
      <path class="cls-1" d="M303.71,219.66l-.07,26.26c0,1.52-2.13,3.47-3.67,3.38-1.28-.07-3-2.06-3.24-3.56l.05-28.85,2.08-4.16,25.19-.05c1.21,0,2.7,2.6,2.62,3.56-.09,1.15-1.96,3.39-3.25,3.39l-19.72.02Z"/>
      <path class="cls-1" d="M318.76,208.47h-11.98c-.84-1.55-.83-5.58.61-5.95,2.72-.69,8.07-.52,10.94.31,1.19.35,1.13,3.86.44,5.64Z"/>
    </g>
  </g>
</svg>