<?xml version="1.0" encoding="UTF-8"?>
<svg id="Layer_2" data-name="Layer 2" xmlns="http://www.w3.org/2000/svg" viewBox="0 0 978.93 227.6">
  <defs>
    <style>
      .cls-1 {
        fill: #fff;
      }
    </style>
  </defs>
  <g id="Layer_1-2" data-name="Layer 1">
    <path class="cls-1" d="M107.12,88.5h0l-6.1-7.3-66.5,56.1-21.1-25.2c-2.9-3.5-4.7-7-5.3-10.6s-.4-6.9.8-9.9,3-5.6,5.5-7.7c2.6-2.2,5.6-3.5,8.9-3.9,3.4-.5,7-.4,10.9.2,3.9.6,7.9,1.5,12,2.7s8.2,2.3,12.3,3.5,8.1,2,12,2.6,7.5.7,10.9.2,6.4-1.8,8.9-3.9c.8-.7,1.5-1.7,2.1-3s.3-2.7-.9-4.2c-2.3-2.8-4.8-4.8-7.5-6.2-2.7-1.3-5.5-2.2-8.3-2.7-2.9-.5-5.7-.7-8.5-.8-2.8,0-5.5-.1-8.1-.2-2.6-.1-5-.5-7.1-1.2-2.2-.7-4-2-5.5-3.8-1.2-1.4-1.7-2.9-1.6-4.6.1-1.7,1-3.2,2.7-4.6,2.4-2,5.5-3.9,9.1-5.6,3.7-1.7,7.6-3.4,11.8-5.1,4.2-1.7,8.4-3.6,12.5-5.7,4.1-2.1,7.8-4.5,11.2-7.3,3-2.5,5.4-5.4,7.4-8.9,2-3.4,3.3-7.4,3.8-12l-7.9-9.4c-.8,3.8-1.8,7.4-3,10.6-1.1,3.2-2.9,6.3-5.2,9.4-2.3,3.1-5.6,6.4-9.9,10-1,.8-2.5,1.9-4.7,3.2s-4.7,2.8-7.5,4.4c-2.8,1.6-5.6,3.4-8.5,5.3-2.8,1.9-5.4,3.8-7.6,5.6-3.2,2.7-5.3,5.3-6.1,7.9-.9,2.6-.2,5.2,2.1,7.9s5.1,4.8,8.3,6.3c3.3,1.5,6.7,2.6,10.3,3.3s7.1,1.3,10.5,1.8c3.4.4,6.3,1,8.9,1.6,2.5.6,4.3,1.5,5.4,2.8.5.6.8,1.2.9,1.9.1.7-.2,1.4-1,2-2.5,2.1-5.4,3.1-8.8,3.2-3.4.1-7-.5-11-1.7s-8.1-2.7-12.4-4.5c-4.3-1.8-8.6-3.5-13-5.2s-8.7-3-12.9-4-8.2-1.3-12-.8c-3.8.4-7.2,2-10.3,4.6C2.93,79.8.32,84.9.02,90.8s2.1,11.9,7.3,18.1l25.2,30.2h0l6.1,7.3,66.5-56.1,21.1,25.2c2.9,3.5,4.7,7,5.3,10.6.6,3.6.4,6.9-.8,9.9-1.2,3-3,5.6-5.5,7.7-2.6,2.2-5.6,3.5-8.9,3.9-3.4.5-7,.4-10.9-.2-3.9-.6-7.8-1.5-12-2.7-4.1-1.2-8.2-2.3-12.3-3.5s-8.1-2-12-2.6-7.5-.7-10.9-.2-6.4,1.8-8.9,3.9c-.8.7-1.5,1.7-2.1,3s-.3,2.7.9,4.2c2.3,2.8,4.8,4.8,7.5,6.2,2.7,1.3,5.5,2.2,8.3,2.7,2.9.5,5.7.7,8.5.8,2.8,0,5.5.1,8.1.2,2.6.1,5,.5,7.1,1.2,2.2.7,4,2,5.5,3.8,1.2,1.4,1.7,2.9,1.6,4.6-.1,1.7-1,3.2-2.7,4.6-2.4,2-5.5,3.9-9.1,5.6-3.7,1.7-7.6,3.4-11.8,5.1-4.2,1.7-8.4,3.6-12.5,5.7-4.1,2.1-7.8,4.5-11.2,7.3-3,2.5-5.4,5.4-7.4,8.9-2,3.4-3.3,7.4-3.8,12l7.9,9.4c.8-3.8,1.8-7.4,3-10.6,1.1-3.2,2.9-6.3,5.2-9.4,2.3-3.1,5.6-6.4,9.9-10,1-.8,2.5-1.9,4.7-3.2s4.7-2.8,7.5-4.4c2.8-1.6,5.6-3.4,8.5-5.3,2.8-1.9,5.4-3.8,7.6-5.6,3.2-2.7,5.3-5.3,6.1-7.9.9-2.6.2-5.2-2.1-7.9s-5.1-4.8-8.3-6.3c-3.3-1.5-6.7-2.6-10.3-3.3s-7.1-1.3-10.5-1.8c-3.4-.4-6.3-1-8.9-1.6-2.5-.6-4.3-1.5-5.4-2.8-.5-.6-.8-1.2-.9-1.9-.1-.7.2-1.4,1-2,2.5-2.1,5.4-3.1,8.8-3.2,3.4-.1,7,.5,11,1.7s8.1,2.7,12.4,4.5c4.3,1.8,8.6,3.5,13,5.2s8.7,3,12.9,4,8.2,1.3,12,.8c3.8-.4,7.2-2,10.3-4.6,5.1-4.2,7.7-9.3,8-15.2s-2.1-11.9-7.3-18.1l-25.2-30.2Z"/>
    <g>
      <path class="cls-1" d="M209.02,116.7c-1.4-1.4-3.5-2.3-6.2-2.8v-.2c5.7-1.2,10.1-3.6,13-7.3s4.4-8.3,4.4-13.9c0-6.6-2-12-6.1-16.4-4.1-4.3-10.3-6.5-18.5-6.5h-23.1v88.2h11.1v-40h3.8c2.9,0,5.2.2,7,.6,1.8.4,3.3,1.3,4.7,2.7,1.3,1.4,2.5,3.5,3.5,6.4l10.2,30.2h12l-12.4-35.4c-.8-2.3-1.9-4.2-3.4-5.6ZM192.62,108.8h-9v-30h9.1c4.9,0,8.8,1.2,11.6,3.7,2.9,2.5,4.3,6.1,4.3,10.8s-1.5,8.5-4.4,11.3c-2.8,2.8-6.7,4.2-11.6,4.2Z"/>
      <path class="cls-1" d="M261.52,69.7l-29.6,88.2h11.1l7.1-23h33.6l7.1,23h11.6l-28.8-88.2h-12.1ZM253.22,125.3l13.9-44h.2l13.5,44h-27.6Z"/>
      <path class="cls-1" d="M328.42,74.3c-5.9,3.7-10.5,9-13.8,15.8-3.2,6.8-4.9,14.7-4.9,23.6s1.5,16.8,4.6,23.6,7.6,12.1,13.5,15.9c5.9,3.8,13.1,5.7,21.6,5.7,4.9,0,10.2-.9,16.1-2.6v-11.1c-4.8,2.8-10.1,4.2-15.8,4.2-9,0-16-3.3-20.9-9.8s-7.4-15.9-7.4-28c0-6.7,1.2-12.5,3.7-17.5,2.4-5,5.8-8.8,9.9-11.5,4.2-2.7,8.8-4,14-4,6.2,0,11.8,1.5,16.6,4.4v-10.9c-4.4-2.1-10-3.2-16.7-3.2-7.7-.1-14.5,1.7-20.5,5.4Z"/>
      <polygon class="cls-1" points="425.92 107.3 395.02 107.3 395.02 69.7 383.92 69.7 383.92 157.9 395.02 157.9 395.02 117 425.92 117 425.92 157.9 437.02 157.9 437.02 69.7 425.92 69.7 425.92 107.3"/>
      <polygon class="cls-1" points="470.12 117 498.72 117 498.72 107.3 470.12 107.3 470.12 79.3 500.12 79.3 500.12 69.7 459.02 69.7 459.02 157.9 501.72 157.9 501.72 148.3 470.12 148.3 470.12 117"/>
      <polygon class="cls-1" points="531.22 69.7 520.12 69.7 520.12 157.9 560.12 157.9 560.12 148.3 531.22 148.3 531.22 69.7"/>
      <path class="cls-1" d="M643.52,116.7c-1.4-1.4-3.5-2.3-6.2-2.8v-.2c5.7-1.2,10.1-3.6,13-7.3s4.4-8.3,4.4-13.9c0-6.6-2-12-6.1-16.4-4.1-4.3-10.3-6.5-18.5-6.5h-23.1v88.2h11.1v-40h3.8c2.9,0,5.2.2,7,.6,1.8.4,3.3,1.3,4.7,2.7,1.3,1.4,2.5,3.5,3.5,6.4l10.2,30.2h12l-12.4-35.4c-.9-2.3-2-4.2-3.4-5.6ZM627.02,108.8h-9v-30h9.1c4.9,0,8.8,1.2,11.6,3.7,2.9,2.5,4.3,6.1,4.3,10.8s-1.5,8.5-4.4,11.3c-2.8,2.8-6.7,4.2-11.6,4.2Z"/>
      <path class="cls-1" d="M721.52,74.1c-4.8-3.5-10.5-5.3-17-5.3-10.6,0-18.8,3.9-24.5,11.8-5.7,7.9-8.6,19.2-8.6,34.1,0,8.9,1.3,16.7,3.9,23.4,2.6,6.6,6.4,11.7,11.2,15.4,4.8,3.6,10.5,5.4,17,5.4,10.7,0,18.9-3.9,24.6-11.8,5.7-7.9,8.5-19.2,8.5-33.9,0-9.1-1.3-17-4-23.6-2.6-6.9-6.3-12-11.1-15.5ZM719.42,140.3c-3.7,6.3-9,9.4-15.9,9.4s-11.6-3.2-15.2-9.5c-3.5-6.4-5.3-15.4-5.3-27.1,0-10,1.8-18.3,5.4-25,3.6-6.8,9-10.1,16.4-10.1,6.3,0,11.3,3.2,14.9,9.6,3.6,6.4,5.4,14.9,5.4,25.6-.1,11.7-1.9,20.8-5.7,27.1Z"/>
      <path class="cls-1" d="M787.32,111.9v-.2c4.5-1.3,8-3.8,10.6-7.3s3.9-7.6,3.9-12.3c0-7.2-2.2-12.7-6.5-16.6-4.3-3.9-10.2-5.8-17.7-5.8h-22.6v88.2h21.6c5.5,0,10.3-1,14.4-3.1s7.3-4.9,9.5-8.6c2.2-3.7,3.3-7.8,3.3-12.5,0-5.9-1.5-10.8-4.4-14.7-3-3.9-7-6.3-12.1-7.1ZM766.12,78.8h8.9c4.9,0,8.7,1.2,11.6,3.6,2.8,2.4,4.2,5.8,4.2,10.3,0,4.9-1.5,8.6-4.5,11.3-3,2.6-7.4,3.9-13.3,3.9h-6.8v-29.1h-.1ZM788.12,144.5c-3,2.9-7.1,4.3-12.2,4.3h-9.8v-31.9h10.5c5.3,0,9.3,1.5,12,4.4s4.1,6.8,4.1,11.6-1.6,8.7-4.6,11.6Z"/>
      <polygon class="cls-1" points="834.22 69.7 823.12 69.7 823.12 157.9 863.22 157.9 863.22 148.3 834.22 148.3 834.22 69.7"/>
      <polygon class="cls-1" points="888.22 117 916.82 117 916.82 107.3 888.22 107.3 888.22 79.3 918.22 79.3 918.22 69.7 877.12 69.7 877.12 157.9 919.92 157.9 919.92 148.3 888.22 148.3 888.22 117"/>
      <path class="cls-1" d="M975.02,120.4c-2.6-4.1-7.2-8.1-14-12-5.9-3.4-9.9-6.2-12.1-8.4s-3.2-5-3.2-8.4c0-3.8,1.3-6.9,3.9-9.4s5.9-3.7,10.1-3.7c2.6,0,5.2.4,7.8,1.1,2.6.7,5,1.7,7.1,3v-10.8c-2.1-.8-4.6-1.5-7.5-2.1s-5.7-.8-8.4-.8c-7.2,0-13.1,2-17.7,6s-6.8,9.4-6.8,16.3c0,4.3.7,7.9,2,10.8,1.3,2.9,3.3,5.4,5.9,7.6,2.6,2.2,6.3,4.8,11.1,7.7,4.2,2.5,7.3,4.7,9.3,6.6,2,1.8,3.3,3.6,3.9,5.3s1,3.7,1,6.2c0,4-1.5,7.4-4.4,10-2.9,2.7-6.6,4-11.2,4s-10.4-1.9-17-5.7v11.5c2.4,1.2,5.2,2.1,8.4,2.8,3.2.7,6.6,1,9.9,1,8.1,0,14.4-2.3,19-6.9,4.6-4.6,6.8-10.6,6.8-18.1,0-5.1-1.3-9.6-3.9-13.6Z"/>
    </g>
  </g>
</svg>