<?xml version="1.0" encoding="UTF-8"?>
<svg id="Layer_2" data-name="Layer 2" xmlns="http://www.w3.org/2000/svg" xmlns:xlink="http://www.w3.org/1999/xlink" viewBox="0 0 979.1 227.64">
  <defs>
    <style>
      .cls-1 {
        fill: url(#linear-gradient-13);
      }

      .cls-2 {
        fill: url(#linear-gradient-2);
      }

      .cls-3 {
        fill: url(#linear-gradient-10);
      }

      .cls-4 {
        fill: url(#linear-gradient-12);
      }

      .cls-5 {
        fill: url(#linear-gradient-4);
      }

      .cls-6 {
        fill: url(#linear-gradient-3);
      }

      .cls-7 {
        fill: url(#linear-gradient-5);
      }

      .cls-8 {
        fill: url(#linear-gradient-8);
      }

      .cls-9 {
        fill: url(#linear-gradient-7);
      }

      .cls-10 {
        fill: url(#linear-gradient-9);
      }

      .cls-11 {
        fill: url(#linear-gradient-11);
      }

      .cls-12 {
        fill: url(#linear-gradient-6);
      }

      .cls-13 {
        fill: url(#linear-gradient);
      }
    </style>
    <linearGradient id="linear-gradient" x1="0" y1="113.82" x2="139.83" y2="113.82" gradientUnits="userSpaceOnUse">
      <stop offset=".03" stop-color="#a7a9ac"/>
      <stop offset=".23" stop-color="#b5b7ba"/>
      <stop offset=".38" stop-color="#c4c6c8"/>
      <stop offset=".57" stop-color="#b5b7b9"/>
      <stop offset=".72" stop-color="#a7a9ac"/>
      <stop offset="1" stop-color="#d1d3d4"/>
      <stop offset="1" stop-color="#a7a9ac"/>
    </linearGradient>
    <linearGradient id="linear-gradient-2" x1="173.2" y1="158.26" x2="219.39" y2="78.26" xlink:href="#linear-gradient"/>
    <linearGradient id="linear-gradient-3" x1="250.56" y1="168.6" x2="299.2" y2="84.35" xlink:href="#linear-gradient"/>
    <linearGradient id="linear-gradient-4" x1="324.21" y1="150.91" x2="368.77" y2="73.72" xlink:href="#linear-gradient"/>
    <linearGradient id="linear-gradient-5" x1="384.88" y1="158.42" x2="436.37" y2="69.24" xlink:href="#linear-gradient"/>
    <linearGradient id="linear-gradient-6" x1="456.1" y1="156.18" x2="504.59" y2="72.19" xlink:href="#linear-gradient"/>
    <linearGradient id="linear-gradient-7" x1="516.17" y1="155.6" x2="557.17" y2="84.6" xlink:href="#linear-gradient"/>
    <linearGradient id="linear-gradient-8" x1="607.63" y1="158.26" x2="653.82" y2="78.26" xlink:href="#linear-gradient"/>
    <linearGradient id="linear-gradient-9" x1="682.62" y1="151.27" x2="725.88" y2="76.35" xlink:href="#linear-gradient"/>
    <linearGradient id="linear-gradient-10" x1="750.6" y1="155.32" x2="796.63" y2="75.59" xlink:href="#linear-gradient"/>
    <linearGradient id="linear-gradient-11" x1="819.24" y1="155.6" x2="860.23" y2="84.6" xlink:href="#linear-gradient"/>
    <linearGradient id="linear-gradient-12" x1="874.22" y1="156.18" x2="922.71" y2="72.19" xlink:href="#linear-gradient"/>
    <linearGradient id="linear-gradient-13" x1="933.09" y1="153.96" x2="979.12" y2="74.23" xlink:href="#linear-gradient"/>
  </defs>
  <g id="Layer_1-2" data-name="Layer 1">
    <path class="cls-13" d="M107.28,88.55h0s-6.11-7.31-6.11-7.31l-66.49,56.07-21.06-25.17c-2.93-3.51-4.71-7.05-5.34-10.62-.63-3.58-.36-6.89.81-9.93,1.17-3.05,2.99-5.61,5.48-7.69,2.59-2.16,5.57-3.48,8.94-3.94,3.38-.46,7-.39,10.86.23,3.86.62,7.85,1.5,11.96,2.66,4.11,1.16,8.22,2.32,12.34,3.47,4.11,1.15,8.1,2.03,11.96,2.64,3.86.62,7.48.69,10.86.23,3.38-.47,6.36-1.78,8.93-3.93.83-.7,1.54-1.71,2.14-3.04.59-1.32.28-2.7-.95-4.16-2.33-2.78-4.84-4.84-7.53-6.19-2.7-1.34-5.48-2.24-8.35-2.7-2.87-.46-5.7-.72-8.51-.76-2.81-.05-5.51-.13-8.09-.25-2.58-.11-4.95-.52-7.11-1.24-2.17-.72-4.01-1.97-5.52-3.78-1.18-1.41-1.72-2.95-1.62-4.6.1-1.66,1.01-3.2,2.71-4.62,2.44-2.04,5.49-3.91,9.15-5.61,3.66-1.7,7.6-3.4,11.8-5.09,4.21-1.7,8.36-3.59,12.47-5.66,4.1-2.07,7.83-4.51,11.19-7.32,2.96-2.48,5.43-5.44,7.41-8.87,1.98-3.43,3.26-7.42,3.84-11.96l-7.87-9.42c-.84,3.85-1.82,7.37-2.96,10.56-1.14,3.19-2.87,6.33-5.2,9.44-2.33,3.1-5.64,6.44-9.92,10.02-.97.82-2.54,1.88-4.71,3.2-2.17,1.32-4.65,2.8-7.46,4.44-2.81,1.64-5.64,3.4-8.48,5.29-2.85,1.89-5.39,3.77-7.64,5.64-3.22,2.69-5.25,5.33-6.1,7.91-.86,2.58-.17,5.21,2.07,7.89,2.28,2.72,5.06,4.83,8.33,6.31,3.27,1.48,6.7,2.6,10.31,3.34,3.61.75,7.11,1.34,10.49,1.78,3.38.44,6.34.96,8.88,1.57,2.53.61,4.33,1.55,5.39,2.81.49.59.79,1.23.92,1.91.12.68-.22,1.35-1,2.01-2.48,2.07-5.4,3.15-8.76,3.23-3.37.08-7.04-.47-11.01-1.66-3.97-1.19-8.1-2.68-12.38-4.49-4.28-1.8-8.62-3.55-13.02-5.25-4.4-1.7-8.7-3.04-12.92-4.02-4.22-.98-8.22-1.26-11.99-.82-3.78.43-7.23,1.95-10.34,4.56C3,79.92.32,84.97.02,90.84c-.29,5.88,2.14,11.91,7.31,18.09l25.23,30.15h0s6.11,7.31,6.11,7.31l66.5-56.07,21.06,25.17c2.93,3.51,4.71,7.05,5.34,10.62.63,3.58.36,6.89-.81,9.93-1.17,3.05-2.99,5.61-5.48,7.69-2.59,2.16-5.57,3.48-8.94,3.94-3.38.46-7,.39-10.86-.23-3.86-.62-7.85-1.5-11.96-2.66-4.11-1.16-8.22-2.32-12.34-3.47-4.11-1.15-8.1-2.03-11.96-2.65-3.86-.62-7.48-.69-10.86-.23-3.38.47-6.36,1.78-8.93,3.93-.83.7-1.54,1.71-2.14,3.04-.59,1.32-.28,2.7.95,4.16,2.33,2.78,4.84,4.84,7.53,6.19,2.7,1.34,5.48,2.24,8.35,2.7,2.87.46,5.7.72,8.51.76,2.81.05,5.51.13,8.09.25,2.58.11,4.95.52,7.11,1.23,2.17.72,4.01,1.97,5.52,3.78,1.18,1.41,1.72,2.95,1.62,4.6-.1,1.66-1.01,3.2-2.71,4.62-2.44,2.04-5.49,3.91-9.15,5.61-3.66,1.7-7.6,3.4-11.8,5.09-4.21,1.7-8.36,3.59-12.47,5.66-4.1,2.07-7.83,4.51-11.19,7.32-2.96,2.48-5.43,5.44-7.41,8.87-1.98,3.43-3.26,7.42-3.84,11.96l7.87,9.42c.84-3.85,1.82-7.37,2.96-10.56,1.14-3.19,2.87-6.33,5.2-9.44,2.33-3.1,5.64-6.44,9.92-10.02.97-.82,2.54-1.88,4.71-3.2,2.17-1.32,4.65-2.8,7.46-4.44,2.81-1.64,5.64-3.4,8.48-5.29,2.85-1.89,5.39-3.77,7.64-5.64,3.22-2.69,5.25-5.33,6.1-7.91.86-2.58.17-5.21-2.07-7.89-2.28-2.72-5.06-4.83-8.33-6.31-3.27-1.48-6.71-2.6-10.31-3.34-3.61-.75-7.11-1.34-10.49-1.78-3.38-.44-6.34-.96-8.88-1.57-2.53-.61-4.33-1.55-5.39-2.81-.49-.59-.79-1.23-.92-1.91-.12-.68.22-1.35,1-2.01,2.48-2.07,5.4-3.15,8.76-3.23,3.37-.08,7.04.47,11.01,1.66,3.97,1.19,8.1,2.68,12.38,4.49,4.28,1.8,8.62,3.55,13.02,5.25,4.4,1.7,8.7,3.04,12.92,4.02,4.22.98,8.22,1.26,11.99.82,3.78-.43,7.23-1.95,10.34-4.56,5.06-4.23,7.74-9.29,8.04-15.16.29-5.88-2.14-11.91-7.31-18.09l-25.23-30.15Z"/>
    <g>
      <path class="cls-2" d="M209.22,116.75c-1.43-1.36-3.49-2.29-6.19-2.79v-.25c5.73-1.18,10.07-3.6,13.02-7.27,2.94-3.67,4.42-8.28,4.42-13.85,0-6.57-2.04-12.02-6.12-16.35-4.08-4.34-10.26-6.52-18.52-6.52h-23.15v88.25h11.12v-39.96h3.79c2.88,0,5.19.22,6.96.65,1.78.42,3.34,1.32,4.69,2.71,1.34,1.39,2.53,3.52,3.54,6.4l10.23,30.21h12.02l-12.4-35.4c-.85-2.53-1.99-4.46-3.42-5.81ZM192.78,108.89h-8.98v-30.08h9.1c4.89,0,8.76,1.24,11.62,3.73,2.88,2.49,4.31,6.09,4.31,10.81s-1.46,8.49-4.38,11.31c-2.91,2.82-6.8,4.23-11.69,4.23Z"/>
      <path class="cls-6" d="M261.7,69.71l-29.58,88.25h11.12l7.06-23.02h33.65l7.08,23.02h11.62l-28.83-88.25h-12.12ZM253.35,125.33l13.92-44h.25l13.52,44h-27.69Z"/>
      <path class="cls-5" d="M328.63,74.37c-5.93,3.71-10.52,8.96-13.77,15.75-3.25,6.79-4.88,14.66-4.88,23.58s1.53,16.79,4.6,23.58c3.08,6.78,7.59,12.06,13.54,15.85,5.94,3.79,13.13,5.69,21.56,5.69,4.89,0,10.24-.88,16.06-2.65v-11.12c-4.81,2.78-10.08,4.17-15.81,4.17-9.02,0-15.99-3.26-20.92-9.79-4.93-6.53-7.4-15.86-7.4-28,0-6.67,1.22-12.48,3.67-17.46,2.44-4.97,5.75-8.8,9.92-11.5,4.17-2.69,8.82-4.04,13.98-4.04,6.23,0,11.76,1.47,16.56,4.42v-10.88c-4.39-2.11-9.95-3.17-16.69-3.17-7.68,0-14.49,1.85-20.44,5.56Z"/>
      <polygon class="cls-7" points="426.06 107.37 395.2 107.37 395.2 69.71 384.08 69.71 384.08 157.96 395.2 157.96 395.2 117 426.06 117 426.06 157.96 437.18 157.96 437.18 69.71 426.06 69.71 426.06 107.37"/>
      <polygon class="cls-12" points="470.3 117 498.89 117 498.89 107.37 470.3 107.37 470.3 79.31 500.28 79.31 500.28 69.71 459.18 69.71 459.18 157.96 501.93 157.96 501.93 148.35 470.3 148.35 470.3 117"/>
      <polygon class="cls-9" points="531.37 69.71 520.25 69.71 520.25 157.96 560.33 157.96 560.33 148.35 531.37 148.35 531.37 69.71"/>
      <path class="cls-8" d="M643.65,116.75c-1.43-1.36-3.49-2.29-6.19-2.79v-.25c5.73-1.18,10.07-3.6,13.02-7.27,2.94-3.67,4.42-8.28,4.42-13.85,0-6.57-2.04-12.02-6.12-16.35-4.08-4.34-10.26-6.52-18.52-6.52h-23.15v88.25h11.12v-39.96h3.79c2.88,0,5.19.22,6.96.65,1.78.42,3.34,1.32,4.69,2.71,1.34,1.39,2.53,3.52,3.54,6.4l10.23,30.21h12.02l-12.4-35.4c-.85-2.53-1.99-4.46-3.42-5.81ZM627.21,108.89h-8.98v-30.08h9.1c4.89,0,8.76,1.24,11.62,3.73,2.88,2.49,4.31,6.09,4.31,10.81s-1.46,8.49-4.38,11.31c-2.91,2.82-6.8,4.23-11.69,4.23Z"/>
      <path class="cls-10" d="M721.67,74.12c-4.81-3.54-10.46-5.31-16.96-5.31-10.61,0-18.79,3.95-24.52,11.83-5.74,7.88-8.6,19.23-8.6,34.06,0,8.95,1.3,16.73,3.92,23.35,2.62,6.61,6.36,11.73,11.21,15.35,4.84,3.61,10.51,5.42,17,5.42,10.71,0,18.9-3.94,24.58-11.81,5.69-7.88,8.54-19.19,8.54-33.94,0-9.11-1.33-16.99-3.98-23.65-2.66-6.67-6.39-11.77-11.19-15.31ZM719.63,140.33c-3.71,6.28-9.02,9.42-15.92,9.42s-11.65-3.18-15.19-9.54c-3.53-6.38-5.29-15.42-5.29-27.12,0-9.96,1.79-18.3,5.38-25.04,3.58-6.75,9.04-10.12,16.38-10.12,6.32,0,11.27,3.19,14.85,9.56,3.58,6.36,5.38,14.9,5.38,25.6,0,11.88-1.86,20.96-5.58,27.25Z"/>
      <path class="cls-3" d="M787.54,111.93v-.25c4.47-1.34,8.01-3.79,10.62-7.33,2.61-3.54,3.92-7.63,3.92-12.27,0-7.17-2.16-12.69-6.46-16.56-4.29-3.88-10.19-5.81-17.69-5.81h-22.77v88.25h21.62c5.48,0,10.29-1.03,14.42-3.08,4.12-2.07,7.28-4.94,9.48-8.6,2.19-3.67,3.29-7.82,3.29-12.46,0-5.9-1.48-10.81-4.44-14.73-2.95-3.92-6.95-6.3-12-7.15ZM766.29,78.81h8.85c4.89,0,8.74,1.2,11.56,3.6,2.83,2.41,4.25,5.83,4.25,10.29,0,4.89-1.5,8.65-4.5,11.27-2.99,2.61-7.43,3.92-13.33,3.92h-6.83v-29.08ZM788.29,144.56c-3.03,2.86-7.11,4.29-12.25,4.29h-9.75v-31.85h10.5c5.3,0,9.3,1.47,12,4.42,2.71,2.95,4.06,6.82,4.06,11.62s-1.52,8.65-4.56,11.52Z"/>
      <polygon class="cls-11" points="834.44 69.71 823.31 69.71 823.31 157.96 863.4 157.96 863.4 148.35 834.44 148.35 834.44 69.71"/>
      <polygon class="cls-4" points="888.42 117 917.01 117 917.01 107.37 888.42 107.37 888.42 79.31 918.4 79.31 918.4 69.71 877.3 69.71 877.3 157.96 920.05 157.96 920.05 148.35 888.42 148.35 888.42 117"/>
      <path class="cls-1" d="M975.22,120.41c-2.57-4.05-7.22-8.06-13.96-12.02-5.91-3.38-9.93-6.17-12.08-8.4-2.16-2.23-3.23-5.04-3.23-8.42,0-3.79,1.28-6.93,3.85-9.42,2.58-2.48,5.94-3.73,10.06-3.73,2.61,0,5.22.36,7.83,1.08,2.61.71,4.97,1.7,7.08,2.96v-10.75c-2.11-.84-4.62-1.54-7.52-2.08-2.91-.55-5.71-.83-8.42-.83-7.24,0-13.14,1.99-17.69,5.96-4.56,3.96-6.83,9.39-6.83,16.29,0,4.31.67,7.9,2.02,10.77,1.34,2.86,3.3,5.39,5.88,7.58,2.58,2.18,6.27,4.75,11.06,7.71,4.22,2.53,7.32,4.72,9.29,6.58,1.98,1.85,3.29,3.62,3.92,5.31.64,1.68.96,3.74.96,6.19,0,4.04-1.46,7.39-4.38,10.04-2.91,2.66-6.62,3.98-11.17,3.98s-10.38-1.9-16.96-5.69v11.5c2.36,1.18,5.17,2.11,8.42,2.79,3.25.67,6.55,1,9.92,1,8.09,0,14.42-2.29,18.98-6.88,4.55-4.59,6.83-10.65,6.83-18.15,0-4.89-1.29-9.35-3.88-13.4Z"/>
    </g>
  </g>
</svg>